<svg version="1.1" id="Layer_1" xmlns="http://www.w3.org/2000/svg" xmlns:xlink="http://www.w3.org/1999/xlink" x="0px" y="0px"
	 width="100%" viewBox="0 0 1024 1024" enable-background="new 0 0 1024 1024" xml:space="preserve">
<path fill="#000000" opacity="1.000000" stroke="none" 
	d="
M836.694397,293.615295 
	C855.638184,281.765808 876.177551,277.386719 897.894043,277.483612 
	C901.530579,277.499817 903.108521,279.046692 902.362427,282.797974 
	C897.866516,305.400787 890.623535,326.866089 876.297180,345.351349 
	C861.095886,364.965485 841.720032,377.845276 816.802856,381.346863 
	C811.935608,382.030884 810.256287,383.842834 810.190063,388.986572 
	C809.983887,404.986908 811.176575,420.934387 811.545410,436.907104 
	C811.667542,442.193359 812.034851,447.672943 812.946167,454.297577 
	C818.086731,449.279785 821.665222,444.475189 826.890808,441.402100 
	C839.927917,433.735077 853.432617,432.832458 866.971680,439.077789 
	C880.885437,445.495880 886.191528,458.036102 887.202881,472.348816 
	C888.411743,489.457245 888.064392,506.619568 887.590332,523.781433 
	C887.375000,531.574402 887.391541,539.410767 887.364197,547.227661 
	C887.345642,552.538025 885.837280,554.228821 880.718323,554.339478 
	C875.222229,554.458313 869.721313,554.372864 864.222717,554.342041 
	C860.250977,554.319763 858.241333,552.306580 857.625061,548.346619 
	C855.947388,537.566345 856.920776,526.731140 856.741699,515.924133 
	C856.562195,505.095947 856.680847,494.262756 856.680664,483.431763 
	C856.680481,475.467560 853.615967,468.821411 846.518494,465.254272 
	C838.955872,461.453339 831.246765,462.675201 824.425293,467.804077 
	C817.001709,473.385620 813.400269,481.028839 813.342468,490.225250 
	C813.228333,508.387329 813.303772,526.550537 813.272278,544.713257 
	C813.258850,552.458496 811.305481,554.345520 803.479004,554.362793 
	C798.813416,554.373047 794.146606,554.474182 789.482666,554.395752 
	C784.578613,554.313293 782.550293,552.214478 782.595398,547.303040 
	C783.014587,501.655762 783.417236,456.008301 783.933350,410.362122 
	C784.021545,402.564667 785.428955,394.793121 783.709290,386.979462 
	C782.917786,383.383301 781.393311,381.608978 777.451782,381.322571 
	C737.513672,378.420898 708.658691,359.607574 693.063171,322.018463 
	C688.781799,311.699341 685.296814,301.135254 683.265747,290.111145 
	C682.392883,285.373688 683.293518,283.739563 688.399414,283.651764 
	C694.885498,283.540161 701.523499,283.205048 707.843933,284.353577 
	C722.235474,286.968719 736.392517,290.451111 749.214905,298.180023 
	C768.660950,309.901520 780.286316,327.314880 787.240417,348.391113 
	C789.537476,355.353088 791.050598,362.502045 792.964233,369.911041 
	C794.810669,337.242310 807.490173,310.837952 836.694397,293.615295 
z"/>
<path fill="#000000" opacity="1.000000" stroke="none" 
	d="
M589.107178,523.867310 
	C594.718140,529.537292 601.380920,531.463745 608.811890,531.713257 
	C620.428345,532.103333 631.641357,530.575562 642.504089,526.194824 
	C648.914307,523.609619 653.361572,526.584717 654.103882,533.419495 
	C654.520447,537.254456 653.940002,541.057068 653.425476,544.856079 
	C653.083252,547.382935 651.227112,548.500244 649.256775,549.418884 
	C639.675781,553.885803 629.672241,556.997437 619.057739,557.290527 
	C608.931152,557.570190 598.832214,557.773682 588.869629,554.701355 
	C570.653198,549.083801 558.896851,537.075134 553.429382,519.183655 
	C547.085693,498.424744 548.146240,478.091736 559.790894,459.167297 
	C568.735168,444.631409 582.853027,438.553589 599.070190,436.778748 
	C606.474121,435.968475 614.085632,435.543518 621.430908,437.162354 
	C642.829529,441.878418 654.824341,455.847717 659.260559,476.822327 
	C660.639954,483.343719 661.251404,490.001892 660.767212,496.652618 
	C660.195984,504.497986 658.302490,506.101135 650.481140,506.116302 
	C636.492493,506.143494 622.503723,506.112152 608.515015,506.103333 
	C601.354187,506.098816 594.191895,506.172699 587.033081,506.049164 
	C583.292847,505.984619 581.863037,507.154663 582.897034,511.119507 
	C584.094727,515.712036 585.807739,519.951660 589.107178,523.867310 
M619.474060,462.860321 
	C604.491943,455.767212 588.444519,462.470673 583.198669,478.013611 
	C581.646301,482.613220 582.300842,483.630798 587.298340,483.651245 
	C599.925903,483.702911 612.554688,483.562958 625.181274,483.678467 
	C628.732117,483.710938 630.146606,482.321991 629.541870,478.915344 
	C628.403198,472.500519 626.022766,466.802582 619.474060,462.860321 
z"/>
<path fill="#000000" opacity="1.000000" stroke="none" 
	d="
M433.000000,427.944519 
	C423.171600,427.936188 413.841705,428.020081 404.515533,427.871429 
	C400.682770,427.810364 399.178589,429.207153 399.283325,433.152466 
	C399.504272,441.475555 399.654907,449.824219 399.232910,458.131866 
	C398.976135,463.187683 400.540283,464.806854 405.612305,464.708313 
	C419.932617,464.430084 434.262146,464.591583 448.587860,464.639343 
	C455.315369,464.661774 456.733856,465.999908 457.139282,472.705963 
	C457.319977,475.694427 457.227234,478.700745 457.222473,481.698914 
	C457.207764,490.994598 455.155853,493.144958 445.718567,493.211914 
	C432.392883,493.306427 419.061523,493.435699 405.741943,493.135345 
	C400.669891,493.020966 399.146179,494.661682 399.241638,499.703979 
	C399.534851,515.190369 399.363770,530.685852 399.337402,546.177795 
	C399.326172,552.779968 397.775421,554.298828 391.018433,554.357666 
	C385.688385,554.404053 380.354614,554.462952 375.027771,554.320190 
	C369.646423,554.175903 367.909882,552.486511 367.647552,547.097900 
	C366.326691,519.965698 367.223999,492.812927 367.004272,465.670074 
	C366.859985,447.847473 366.983124,430.022614 367.008667,412.198761 
	C367.011536,410.202362 367.070404,408.197845 367.255798,406.211334 
	C367.826904,400.092804 369.319153,398.682526 375.392090,398.661011 
	C386.885986,398.620270 398.380127,398.648651 409.874146,398.651031 
	C425.532654,398.654327 441.191254,398.637054 456.849670,398.675415 
	C463.875946,398.692657 465.309662,400.178131 465.343597,407.211670 
	C465.364471,411.542450 465.237701,415.877533 465.392517,420.203003 
	C465.556580,424.786804 463.269196,426.822601 458.948822,427.404724 
	C450.477478,428.546112 441.980438,427.699921 433.000000,427.944519 
z"/>
<path fill="#000000" opacity="1.000000" stroke="none" 
	d="
M677.263794,487.539978 
	C666.319458,464.991211 675.979553,443.632904 699.772461,437.348145 
	C717.189636,432.747437 734.343811,434.212311 751.225464,440.163177 
	C754.128662,441.186615 756.017334,442.983612 756.650574,446.092316 
	C757.661987,451.057709 757.565491,456.056122 756.755554,460.980743 
	C756.022949,465.435883 752.758789,466.416931 748.827515,465.385956 
	C743.200012,463.910034 737.672485,462.031586 732.013733,460.701782 
	C724.668152,458.975616 717.236023,458.073608 710.019531,461.388489 
	C702.742310,464.731323 702.007568,472.032196 708.465576,476.726593 
	C711.045959,478.602295 713.943420,479.827423 717.020264,480.700012 
	C725.498840,483.104675 733.981140,485.501434 742.417786,488.047760 
	C771.963928,496.965363 770.338379,529.813477 755.171265,544.629272 
	C747.316895,552.301697 737.717102,555.758118 727.423889,556.911926 
	C711.208618,558.729553 695.225708,557.129944 679.961182,550.623230 
	C674.675903,548.370300 672.076782,544.873352 672.614502,539.040833 
	C672.858154,536.398010 672.625244,533.713989 672.670776,531.049683 
	C672.791382,523.991089 676.575378,521.279907 683.137573,524.151550 
	C688.806030,526.632202 694.543091,528.829285 700.508850,530.341736 
	C708.273438,532.310303 716.133118,533.727600 724.156677,531.708008 
	C724.961670,531.505371 725.797424,531.373474 726.560791,531.065063 
	C730.623352,529.423523 734.316040,526.909180 734.398926,522.283875 
	C734.475647,517.995728 731.311646,515.053345 727.495850,513.265747 
	C719.780090,509.651154 711.502563,507.664551 703.405029,505.153259 
	C693.068542,501.947510 683.357056,497.752136 677.263794,487.539978 
z"/>
<path fill="#000000" opacity="1.000000" stroke="none" 
	d="
M180.356262,449.000122 
	C180.351166,468.492615 180.474365,487.486237 180.306015,506.477295 
	C180.110977,528.480652 168.061234,547.387756 149.950226,554.023315 
	C137.730682,558.500305 125.127449,558.707092 112.583534,555.627136 
	C99.062866,552.307434 101.950806,552.453369 101.655487,541.367981 
	C101.566788,538.038452 101.743324,534.701538 101.638031,531.373047 
	C101.499931,527.007629 103.710159,525.495056 107.821953,525.579346 
	C110.934761,525.643188 113.639145,526.931030 116.478294,527.823486 
	C127.609505,531.322449 139.452362,526.922058 143.822815,517.281738 
	C146.184647,512.072083 146.615875,506.347412 146.626404,500.683350 
	C146.683716,469.862274 146.657425,439.041046 146.662720,408.219849 
	C146.664200,399.535400 147.586945,398.642761 156.522766,398.649323 
	C162.187195,398.653473 167.852402,398.605255 173.515808,398.684937 
	C178.988617,398.761902 180.313904,400.048859 180.335800,405.517303 
	C180.393158,419.844696 180.355469,434.172455 180.356262,449.000122 
z"/>
<path fill="#000000" opacity="1.000000" stroke="none" 
	d="
M258.663788,497.999939 
	C258.665833,481.167267 258.636414,464.834534 258.683197,448.502014 
	C258.707306,440.086884 260.196381,438.667023 268.606781,438.658783 
	C273.106567,438.654388 277.609070,438.577454 282.105408,438.705994 
	C287.116821,438.849213 289.291046,440.819855 289.297729,445.644104 
	C289.349945,483.308929 289.684448,520.979065 289.158661,558.636841 
	C288.848267,580.866577 273.581482,596.615723 251.451263,599.394592 
	C236.825745,601.231079 233.923111,598.424133 234.802063,583.652649 
	C235.115158,578.390747 236.351547,574.951172 242.620575,573.631409 
	C254.178909,571.198120 258.472504,564.184814 258.610352,549.497681 
	C258.769928,532.499756 258.657959,515.499268 258.663788,497.999939 
z"/>
<path fill="#000000" opacity="1.000000" stroke="none" 
	d="
M474.843567,501.999573 
	C475.202301,483.024048 474.470703,464.536407 475.524536,446.066895 
	C475.817780,440.927979 477.652985,438.809875 482.762726,438.685638 
	C487.256805,438.576355 491.758972,438.561798 496.251831,438.697052 
	C501.899841,438.867065 503.953278,441.015472 504.422607,446.523834 
	C504.700256,449.782013 504.372803,453.124146 505.655975,456.960754 
	C510.396667,449.009216 515.830688,442.469238 524.039368,438.668793 
	C529.667908,436.062897 535.488037,435.281982 541.538025,435.730560 
	C544.871155,435.977722 546.975769,437.587341 547.469788,441.265686 
	C548.295044,447.410980 548.325806,453.569244 548.046143,459.714264 
	C547.771606,465.748840 545.687012,467.394318 539.803528,466.611847 
	C518.186890,463.736969 507.184631,478.305298 506.449585,495.861664 
	C505.816101,510.993011 506.233032,526.168213 506.181519,541.324036 
	C506.141907,552.980774 504.795593,554.355713 493.414642,554.371765 
	C490.083679,554.376526 486.752625,554.381042 483.421753,554.361938 
	C478.774170,554.335205 475.926971,552.304077 475.296631,547.429688 
	C474.265991,539.459351 474.880127,531.465576 474.768097,523.484314 
	C474.669922,516.491089 474.809326,509.494598 474.843567,501.999573 
z"/>
<path fill="#000000" opacity="1.000000" stroke="none" 
	d="
M343.206665,468.000000 
	C343.240204,493.146149 343.288605,517.792297 343.283905,542.438416 
	C343.283478,544.754211 343.126678,547.101379 342.726410,549.378357 
	C342.164795,552.572876 340.110382,554.328003 336.805084,554.342957 
	C330.810547,554.370056 324.812225,554.450745 318.822266,554.276428 
	C315.278046,554.173340 312.835724,552.521667 312.600677,548.544128 
	C312.404907,545.230652 311.788147,541.928223 311.778748,538.619690 
	C311.697327,509.977081 311.710083,481.334198 311.700623,452.691376 
	C311.700256,451.526428 311.685333,450.354370 311.799438,449.197693 
	C312.740906,439.652252 313.853058,438.659607 323.513641,438.656219 
	C327.343781,438.654846 331.175079,438.604462 335.003815,438.679138 
	C340.559845,438.787476 342.712952,440.512573 342.983032,446.026123 
	C343.332977,453.170593 343.156647,460.340851 343.206665,468.000000 
z"/>
<path fill="#000000" opacity="1.000000" stroke="none" 
	d="
M226.527130,554.287109 
	C221.079727,554.323975 216.083160,554.379456 211.087967,554.320129 
	C206.982574,554.271362 204.783783,552.499939 204.516251,548.002869 
	C203.525940,531.355774 204.708984,514.724548 204.584442,498.086853 
	C204.462341,481.780121 204.473557,465.472473 204.390549,449.165405 
	C204.342560,439.737732 205.396042,438.662781 214.978592,438.653778 
	C218.975433,438.650024 222.972336,438.611694 226.969101,438.623810 
	C232.216080,438.639740 234.650452,440.770416 235.256149,445.889587 
	C235.372955,446.876892 235.329346,447.885406 235.329071,448.884125 
	C235.320175,479.860626 235.327011,510.837128 235.282867,541.813599 
	C235.270432,550.538330 233.983307,552.360046 226.527130,554.287109 
z"/>
<path fill="#000000" opacity="1.000000" stroke="none" 
	d="
M206.046326,424.905762 
	C200.169449,416.519318 200.127029,406.773224 205.699112,400.772583 
	C211.991837,393.995911 221.683716,392.604523 229.817917,397.310150 
	C236.142471,400.968872 239.463425,409.275726 237.595703,416.765076 
	C235.607269,424.738556 229.436661,429.934265 221.757217,430.387115 
	C215.849091,430.735504 210.480850,429.792908 206.046326,424.905762 
z"/>
<path fill="#000000" opacity="1.000000" stroke="none" 
	d="
M313.921753,399.918304 
	C326.242188,390.425446 341.248383,394.824402 344.534393,408.546722 
	C346.421204,416.426056 343.097198,424.547119 336.474152,428.239410 
	C329.353638,432.209045 319.695190,431.124420 314.264954,425.745300 
	C308.242523,419.779572 306.942108,411.083893 311.057404,403.814667 
	C311.786926,402.526093 312.794403,401.394836 313.921753,399.918304 
z"/>
<path fill="#000000" opacity="1.000000" stroke="none" 
	d="
M264.169312,428.153107 
	C254.774841,420.991241 253.052582,410.744232 259.407867,401.656433 
	C264.509766,394.360931 275.617249,392.412720 283.537506,397.424103 
	C291.189972,402.266144 294.118225,411.979126 290.396698,420.176056 
	C286.585480,428.570404 276.760437,432.729034 267.703583,429.745117 
	C266.603607,429.382751 265.571930,428.813049 264.169312,428.153107 
z"/>
<path fill="#000000" opacity="1.000000" stroke="none" 
	d="
M390.057617,655.607300 
	C386.327911,664.798035 379.017334,668.200745 370.254608,669.071411 
	C365.632019,669.530640 360.935455,669.222717 356.273346,669.315735 
	C353.766022,669.365784 352.666138,668.250305 352.673706,665.715759 
	C352.712433,652.719910 352.701080,639.723816 352.662292,626.727966 
	C352.655670,624.503845 353.577240,623.138123 355.823578,623.156494 
	C362.798584,623.213440 369.920532,622.650146 376.625519,624.830078 
	C389.257294,628.936768 394.105591,638.814819 390.057617,655.607300 
M360.999298,650.453125 
	C361.033295,652.947815 361.028656,655.443909 361.115387,657.936768 
	C361.169647,659.495789 361.593781,660.827637 363.317169,661.464478 
	C367.734772,663.097046 377.411560,660.000610 379.894257,655.789124 
	C383.315582,649.985352 384.004120,643.917175 380.591949,637.788452 
	C377.353790,631.972229 371.894318,630.587585 365.801300,630.332520 
	C362.413605,630.190674 360.897888,631.580078 360.966675,634.993164 
	C361.063843,639.815735 360.992828,644.641785 360.999298,650.453125 
z"/>
<path fill="#000000" opacity="1.000000" stroke="none" 
	d="
M751.346008,636.886230 
	C753.613708,633.723145 752.482544,630.199585 752.604431,626.833557 
	C752.837524,620.398987 752.933228,620.206787 759.575317,621.043396 
	C760.694031,622.117126 760.337280,623.516235 760.338989,624.801208 
	C760.357117,638.098145 760.375122,651.395264 760.301392,664.691772 
	C760.292053,666.363953 761.180664,668.992493 758.752808,669.330017 
	C756.436584,669.652100 753.200928,670.824097 752.217834,666.972900 
	C741.079529,671.067139 734.547363,670.204102 730.413696,664.193237 
	C725.398621,656.900513 725.783569,645.688354 730.991943,639.432617 
	C734.588135,635.113281 744.781128,632.155762 751.346008,636.886230 
M737.591309,645.154114 
	C736.927429,646.482300 736.018066,647.744690 735.641541,649.149902 
	C733.880127,655.724365 738.965515,663.242859 744.474426,662.213806 
	C748.566406,661.449402 751.442505,658.983032 752.374329,654.859802 
	C753.362793,650.486145 752.297424,646.396606 748.593323,643.752686 
	C745.129517,641.280396 741.389893,641.611938 737.591309,645.154114 
z"/>
<path fill="#000000" opacity="1.000000" stroke="none" 
	d="
M556.624268,655.920898 
	C556.623413,646.451721 556.890137,637.459106 556.512268,628.493652 
	C556.318787,623.903320 557.973694,622.757751 562.204651,622.958923 
	C568.344727,623.250916 574.509155,623.000122 580.662598,623.052917 
	C586.421082,623.102356 586.673950,623.456970 585.814514,630.374390 
	C580.530273,630.374390 575.092957,630.687439 569.708862,630.286438 
	C564.317200,629.884888 564.434753,633.036804 564.271362,636.840515 
	C564.090271,641.054077 565.314941,642.993774 569.869629,642.678589 
	C574.635376,642.348816 579.441711,642.604858 584.105042,642.604858 
	C585.546143,648.672607 585.118530,649.303894 579.814575,649.373169 
	C576.322388,649.418823 572.818542,649.564270 569.339294,649.349854 
	C565.350037,649.104126 564.054688,650.805054 564.285889,654.656921 
	C564.500854,658.237427 563.876404,661.929688 569.356323,661.684570 
	C573.339783,661.506348 577.338257,661.645325 581.329834,661.669922 
	C587.606812,661.708557 587.831360,662.005066 586.775024,669.370483 
	C577.463562,669.370483 568.049133,669.392212 558.634888,669.355286 
	C556.274902,669.346008 556.159241,667.712097 556.268250,665.866333 
	C556.454163,662.717773 556.512756,659.561584 556.624268,655.920898 
z"/>
<path fill="#000000" opacity="1.000000" stroke="none" 
	d="
M320.008789,635.406860 
	C326.152466,637.623047 327.864075,642.411621 328.152649,647.797485 
	C328.463959,653.607178 328.214355,659.444763 328.330963,665.267822 
	C328.390594,668.245422 327.150391,669.426575 324.158081,669.379883 
	C321.328857,669.335571 319.761047,668.467468 319.806427,665.378174 
	C319.882172,660.220093 319.905853,655.057434 319.773438,649.901245 
	C319.647522,644.998169 317.161713,642.250977 313.125092,642.205505 
	C309.223907,642.161560 305.596313,645.552551 305.419067,649.842834 
	C305.206238,654.994202 305.235474,660.161865 305.353180,665.318115 
	C305.422577,668.357971 304.150116,669.441711 301.189026,669.375916 
	C298.441101,669.314941 296.794189,668.671448 296.815247,665.460693 
	C296.904694,651.813843 296.910706,638.165894 296.827942,624.519043 
	C296.808472,621.306030 298.432159,620.676208 301.192474,620.627625 
	C304.157562,620.575439 305.348328,621.660828 305.381866,624.685303 
	C305.425385,628.608582 304.761597,632.607910 306.078827,636.902771 
	C310.570709,635.179749 314.955688,633.615906 320.008789,635.406860 
z"/>
<path fill="#000000" opacity="1.000000" stroke="none" 
	d="
M418.354309,634.893188 
	C426.700012,637.234619 429.556915,643.173218 430.208252,650.710388 
	C430.476074,653.809570 429.236023,655.354736 425.930695,655.257446 
	C421.276184,655.120483 416.613770,655.161865 411.956757,655.243103 
	C410.203125,655.273682 408.279419,654.707520 406.761658,656.140747 
	C407.793213,661.060181 412.342041,663.723694 417.076874,662.180847 
	C418.016327,661.874695 418.972778,661.458984 419.759766,660.875732 
	C422.574066,658.790100 426.220612,656.512634 428.263947,660.388916 
	C430.221588,664.102661 425.818176,666.280579 423.103088,667.500549 
	C416.433899,670.497253 409.440063,670.837402 403.230560,666.254578 
	C397.800598,662.247131 396.053436,656.295654 396.892120,649.845032 
	C397.779572,643.019165 400.933350,637.560852 408.040283,635.297668 
	C411.306396,634.257629 414.624939,634.704529 418.354309,634.893188 
M420.998352,647.529968 
	C420.494843,643.221680 417.400177,641.523254 413.748108,641.560852 
	C410.103790,641.598450 407.224609,643.570984 406.217346,648.087585 
	C411.207916,648.893616 415.894043,648.988159 420.998352,647.529968 
z"/>
<path fill="#000000" opacity="1.000000" stroke="none" 
	d="
M658.145447,659.867188 
	C659.562317,664.250305 656.203308,665.679260 653.710022,667.218445 
	C646.516418,671.659302 634.894531,669.706177 629.961670,663.508057 
	C624.982178,657.251282 625.540894,645.541504 631.113953,639.361206 
	C635.561707,634.428955 644.852295,632.944763 651.511169,636.102783 
	C657.272705,638.835205 660.237061,645.236511 659.447998,652.486511 
	C659.162109,655.113892 657.698181,655.308594 655.718628,655.298218 
	C650.554749,655.271118 645.390381,655.238342 640.226990,655.291931 
	C638.820496,655.306580 636.959717,654.860962 636.529541,656.897339 
	C636.168213,658.608215 637.497925,659.625610 638.708191,660.530640 
	C642.783508,663.577942 646.946777,663.075073 650.678101,660.162659 
	C653.169617,658.218018 655.319397,657.852905 658.145447,659.867188 
M641.268738,648.605347 
	C644.460815,648.356995 647.779602,649.278748 651.018494,647.822815 
	C650.163757,643.458679 647.179016,641.559265 643.593567,641.563965 
	C639.826477,641.568848 636.851562,643.624695 635.972839,647.722717 
	C637.517639,648.863281 639.053162,648.476318 641.268738,648.605347 
z"/>
<path fill="#000000" opacity="1.000000" stroke="none" 
	d="
M233.549164,636.082397 
	C240.784927,633.692749 247.370224,633.666504 253.104736,638.760864 
	C256.924500,642.154175 257.468567,646.705505 257.427032,651.534424 
	C257.402252,654.415161 256.294128,655.329956 253.559891,655.253723 
	C248.737091,655.119080 243.906982,655.154419 239.081985,655.238159 
	C237.328506,655.268555 235.400177,654.738464 233.889099,656.184021 
	C235.938553,662.627197 242.273773,664.722229 248.038956,660.312378 
	C251.464264,657.692200 253.889130,658.084106 256.669861,660.621338 
	C254.735016,666.886658 250.226364,669.418274 241.270844,669.348938 
	C232.684082,669.282471 227.350433,665.491943 225.210114,657.935120 
	C222.734604,649.194824 225.682251,641.173706 233.549164,636.082397 
M233.837357,647.587280 
	C238.878220,649.682678 243.902298,648.443787 249.381134,648.238342 
	C248.074387,643.803040 245.381866,641.861145 241.951218,641.572754 
	C238.149292,641.253113 235.436462,643.474670 233.837357,647.587280 
z"/>
<path fill="#000000" opacity="1.000000" stroke="none" 
	d="
M451.900055,634.642456 
	C461.064209,635.115845 464.306763,638.465759 464.339172,647.033630 
	C464.347351,649.194397 464.245544,651.360657 464.365997,653.514771 
	C464.561523,657.011353 463.356903,660.729126 466.879211,663.645081 
	C468.006470,664.578308 467.622528,667.073730 467.019592,668.818115 
	C466.662201,669.008911 466.274811,669.366699 466.107513,669.283203 
	C459.025635,665.751038 451.986145,669.471313 444.933777,669.366516 
	C439.417297,669.284546 436.104706,666.490662 435.638916,661.712952 
	C434.956665,654.714783 437.151215,651.006958 443.043457,649.637512 
	C446.589966,648.813232 450.207642,648.293762 453.795532,647.649536 
	C454.967224,647.439148 456.176300,647.250916 456.383850,645.783813 
	C456.568390,644.479004 455.749023,643.604553 454.861938,642.820740 
	C452.233795,640.498352 447.417450,640.664490 444.535553,643.821838 
	C441.881592,646.729431 439.185333,646.132935 437.261536,644.007202 
	C435.165894,641.691711 437.794586,639.763550 439.395477,638.250427 
	C442.759430,635.070801 446.981232,634.356079 451.900055,634.642456 
M451.403137,662.195251 
	C453.352631,661.193359 455.185883,659.965088 456.147369,657.962952 
	C456.949341,656.292786 456.951294,654.310242 454.408630,654.556519 
	C451.484131,654.839844 448.413422,654.880554 445.739960,656.424683 
	C444.401337,657.197876 443.244476,658.240051 443.561615,659.983215 
	C443.869049,661.672729 445.201630,662.488708 446.755981,662.659668 
	C448.046967,662.801758 449.380768,662.554565 451.403137,662.195251 
z"/>
<path fill="#000000" opacity="1.000000" stroke="none" 
	d="
M796.333801,645.282166 
	C796.061157,653.527710 795.895020,661.296326 800.610474,668.535767 
	C800.031128,668.661194 799.451782,668.786682 798.872375,668.912109 
	C798.249939,669.064087 797.441833,669.547546 797.032776,669.318420 
	C790.432007,665.621887 783.895691,669.566650 777.339905,669.406250 
	C771.788879,669.270447 768.473511,666.696960 767.737000,661.899658 
	C766.784668,655.696777 769.080505,651.372742 774.643860,649.773193 
	C778.135376,648.769409 781.800476,648.362122 785.394775,647.726990 
	C786.737549,647.489746 788.237061,647.375610 788.242981,645.595764 
	C788.247620,644.203979 787.478333,643.011902 786.223022,642.340637 
	C782.878235,640.552185 779.574036,640.938904 777.071533,643.636719 
	C774.365601,646.553772 771.446777,646.568359 769.460938,643.826294 
	C767.449219,641.048401 770.145203,638.793091 772.371155,637.388977 
	C778.646545,633.430542 785.327515,633.483887 791.891174,636.531738 
	C795.192810,638.064819 796.567932,641.132263 796.333801,645.282166 
M781.728699,655.304749 
	C781.079224,655.404419 780.389160,655.396301 779.787537,655.623047 
	C777.558044,656.463257 775.068726,657.611084 775.865784,660.403381 
	C776.618408,663.039917 779.300781,663.135071 781.699097,662.757751 
	C782.654053,662.607544 783.666809,662.324463 784.471313,661.814697 
	C786.720581,660.389526 789.446533,658.644775 788.230286,655.682983 
	C787.144836,653.039551 784.476135,655.120422 781.728699,655.304749 
z"/>
<path fill="#000000" opacity="1.000000" stroke="none" 
	d="
M701.345337,662.551514 
	C697.777649,653.445312 694.360046,644.695374 690.936890,635.931335 
	C697.723694,633.652466 699.210144,634.278687 701.455872,639.820068 
	C703.806824,645.621277 704.995117,651.881592 708.332336,657.976379 
	C711.546875,651.465271 713.168335,645.041931 715.394104,638.852051 
	C716.087036,636.924988 716.627808,634.900940 719.158203,634.853577 
	C720.930725,634.820374 723.031982,634.065552 724.355896,635.666016 
	C725.659119,637.241516 724.139221,638.778320 723.552856,640.261047 
	C718.789185,652.306519 714.192322,664.422668 709.164978,676.357361 
	C706.133667,683.553589 702.252930,685.342407 694.892212,683.954895 
	C694.223206,680.500427 694.247070,677.920776 698.638916,676.365112 
	C703.799194,674.537170 704.389771,670.301453 701.345337,662.551514 
z"/>
<path fill="#000000" opacity="1.000000" stroke="none" 
	d="
M802.855225,641.057983 
	C802.104736,639.196716 801.507324,637.689270 800.924316,636.218384 
	C806.571594,633.531677 808.664246,634.197815 810.872742,639.197021 
	C813.483826,645.107605 814.647522,651.583496 818.388794,658.327026 
	C820.840515,651.461243 823.013306,645.369812 825.191833,639.280396 
	C825.913696,637.262695 826.335449,634.920410 829.170227,634.857788 
	C830.794189,634.821899 832.660950,634.243530 833.950195,635.514771 
	C835.526123,637.068787 833.950867,638.594177 833.393127,640.054443 
	C829.008484,651.532104 824.722656,663.049988 820.143494,674.449890 
	C816.703186,683.014709 813.325500,684.979431 804.915649,683.995605 
	C803.691772,680.497437 803.853088,678.065979 808.261414,676.566040 
	C812.917297,674.981750 814.366760,670.710144 812.577881,666.021912 
	C809.440125,657.798645 806.203491,649.613159 802.855225,641.057983 
z"/>
<path fill="#000000" opacity="1.000000" stroke="none" 
	d="
M166.811020,627.270508 
	C166.624237,623.889282 168.309036,623.093323 170.855911,623.100037 
	C178.006790,623.118896 185.158066,623.107300 192.308685,623.049072 
	C195.047363,623.026733 196.165314,624.243042 196.129410,626.997070 
	C196.094238,629.695801 194.692780,630.397644 192.344009,630.371826 
	C188.187027,630.326172 184.026489,630.460327 179.872406,630.343384 
	C176.760025,630.255737 175.143280,631.426147 175.328674,634.687500 
	C175.404053,636.013489 175.445236,637.357971 175.316772,638.675964 
	C174.967438,642.260437 176.323730,643.954712 180.114487,643.684509 
	C183.092590,643.472229 186.098740,643.618164 189.091721,643.658142 
	C194.578354,643.731445 194.813446,644.064270 193.586884,650.385071 
	C189.424164,650.385071 185.131393,650.559570 180.859726,650.334229 
	C176.856125,650.123047 174.935287,651.459534 175.291702,655.722717 
	C175.540192,658.694946 175.198334,661.712585 175.358444,664.697144 
	C175.528549,667.867737 174.882416,669.541260 171.046539,669.521179 
	C167.217010,669.501038 166.726288,667.811584 166.755997,664.657166 
	C166.871933,652.351746 166.806091,640.044617 166.811020,627.270508 
z"/>
<path fill="#000000" opacity="1.000000" stroke="none" 
	d="
M515.012634,653.115540 
	C519.293640,662.491577 515.245361,669.084106 505.401398,669.346497 
	C500.747070,669.470520 496.010040,669.826111 491.861786,667.005615 
	C489.458191,665.371460 487.747925,663.405579 489.662903,660.365540 
	C491.539185,657.387146 493.769897,659.038696 495.676636,660.229553 
	C498.777222,662.166260 501.971436,663.321777 505.613007,662.363586 
	C506.911499,662.021912 508.152588,661.304443 508.354095,659.768494 
	C508.568420,658.134766 507.385345,657.261780 506.114563,656.858337 
	C503.111542,655.905151 500.016449,655.244446 497.003479,654.319397 
	C491.045532,652.490173 489.138184,649.501160 489.678162,643.096008 
	C490.077393,638.360962 493.154266,635.364563 498.721008,634.794434 
	C503.031586,634.353027 507.453217,634.156860 511.349487,636.583984 
	C513.817749,638.121582 516.491150,640.548096 514.476624,643.356873 
	C512.857239,645.614807 509.571716,645.886719 507.205261,642.997192 
	C506.219116,641.793091 504.747101,641.403320 503.162781,641.354309 
	C500.801147,641.281250 498.440460,641.803467 498.009064,644.265442 
	C497.558929,646.834290 500.098938,647.170410 501.991669,647.747864 
	C506.390106,649.089661 511.284546,649.185364 515.012634,653.115540 
z"/>
<path fill="#000000" opacity="1.000000" stroke="none" 
	d="
M269.164062,635.622620 
	C275.018829,634.103638 280.473877,633.703186 285.383911,637.006042 
	C287.357910,638.333923 289.967346,640.571350 288.100006,643.090149 
	C286.343414,645.459412 283.363342,645.898560 280.913208,643.018433 
	C279.641815,641.523804 277.754089,641.377502 275.868134,641.350586 
	C273.843506,641.321716 272.038483,641.883179 271.544617,643.924988 
	C270.981689,646.252258 272.857788,647.101868 274.693909,647.609680 
	C277.568420,648.404602 280.542328,648.889038 283.351959,649.858887 
	C288.426300,651.610535 290.917053,655.702576 290.221344,660.613037 
	C289.540192,665.420715 285.857025,669.053345 280.704224,669.236572 
	C275.461792,669.422974 269.998383,670.400391 265.199036,667.111633 
	C262.865967,665.512878 260.926483,663.776978 262.855042,660.577515 
	C264.855408,657.258850 267.146881,658.842407 269.113800,660.338196 
	C271.824432,662.399414 274.743225,663.037598 278.011108,662.646667 
	C279.801056,662.432556 281.290436,661.732422 281.617859,659.797974 
	C281.975342,657.686035 280.496155,656.798523 278.788300,656.352234 
	C276.066803,655.641174 273.273621,655.190369 270.575806,654.405823 
	C266.226837,653.141174 263.175537,650.450439 262.850037,645.703674 
	C262.538055,641.154053 264.335297,637.605408 269.164062,635.622620 
z"/>
<path fill="#000000" opacity="1.000000" stroke="none" 
	d="
M611.559204,647.672424 
	C612.654114,644.644470 613.548279,641.956726 614.618591,639.341125 
	C616.707458,634.236206 618.027283,633.762695 624.030090,635.924133 
	C623.695374,639.742065 621.641113,643.041992 620.363953,646.570068 
	C617.929077,653.295898 615.247986,659.932800 612.827820,666.663635 
	C611.991882,668.988586 610.598938,669.740417 608.283875,669.447205 
	C605.955322,669.152161 603.268982,670.271484 601.996155,666.913269 
	C598.281982,657.114380 594.377258,647.387817 590.592285,637.615479 
	C590.376648,637.058655 590.564331,636.345703 590.564331,635.744873 
	C597.030884,633.687744 598.339905,634.321167 600.393555,639.946533 
	C602.499634,645.715576 604.769104,651.424927 607.183594,657.725342 
	C609.635925,654.556458 610.222534,651.152527 611.559204,647.672424 
z"/>
<path fill="#000000" opacity="1.000000" stroke="none" 
	d="
M201.650909,641.127563 
	C201.972244,638.662231 200.729050,635.964478 203.537842,635.059265 
	C205.999405,634.265991 208.484222,634.566895 210.159241,637.328308 
	C213.009247,635.991638 215.543289,633.742737 218.958496,634.630310 
	C220.579224,635.051453 222.628662,635.310608 222.334015,637.475769 
	C222.063873,639.460999 221.855667,641.815247 219.172562,642.546265 
	C211.441711,644.652100 210.145035,646.319336 210.035568,654.166809 
	C209.982376,657.980591 209.984268,661.795654 210.008804,665.609802 
	C210.029083,668.763733 208.188065,669.394470 205.466995,669.377808 
	C202.710205,669.360901 201.625992,668.211853 201.649002,665.492004 
	C201.716354,657.531677 201.658997,649.570251 201.650909,641.127563 
z"/>
<path fill="#000000" opacity="1.000000" stroke="none" 
	d="
M675.822144,636.820923 
	C678.360046,634.746582 680.938293,633.733887 683.921265,634.612854 
	C685.669250,635.127930 687.806641,635.748840 687.129333,638.190430 
	C686.601868,640.091675 686.495605,642.384644 683.446655,642.799622 
	C677.683960,643.583862 674.683594,647.210632 674.467163,653.361023 
	C674.321167,657.509521 674.347351,661.696106 674.749634,665.821472 
	C675.054321,668.947021 673.622742,669.448059 671.064209,669.614441 
	C668.311035,669.793457 666.576721,669.422241 666.622437,666.038574 
	C666.741516,657.217773 666.614441,648.393921 666.684692,639.572083 
	C666.697937,637.910034 665.731689,635.527527 668.329651,634.980530 
	C670.362061,634.552612 672.734619,634.136353 674.137939,636.508728 
	C674.540527,637.189331 674.847046,637.604919 675.822144,636.820923 
z"/>
<path fill="#000000" opacity="1.000000" stroke="none" 
	d="
M481.348328,632.020081 
	C481.348267,642.664795 481.360809,652.811951 481.343018,662.959045 
	C481.331055,669.779358 481.062378,669.983459 473.895294,668.727539 
	C473.895294,653.067017 473.895294,637.344116 473.895294,621.611511 
	C480.221497,619.554565 481.288361,620.253723 481.343750,626.532043 
	C481.358398,628.195374 481.347290,629.859009 481.348328,632.020081 
z"/>
<path fill="#000000" opacity="1.000000" stroke="none" 
	d="
M522.633179,661.684082 
	C524.606628,657.812256 527.635437,657.990662 530.359070,659.521301 
	C533.352112,661.203430 532.854797,664.398743 531.910095,667.054565 
	C530.823730,670.108704 527.874573,669.732483 525.530945,669.222412 
	C521.476013,668.340027 521.995972,665.121399 522.633179,661.684082 
z"/>
<path fill="#000000" opacity="1.000000" stroke="none" 
	d="
M835.746460,667.307739 
	C835.438538,666.629456 835.255859,666.325867 835.220215,666.005859 
	C834.863831,662.806946 835.264465,659.856445 838.901489,658.853088 
	C841.048157,658.260925 843.427734,658.449341 844.601685,660.723938 
	C845.880981,663.202881 846.191895,666.153687 843.935425,668.083557 
	C841.459900,670.200867 838.484436,670.207642 835.746460,667.307739 
z"/>
</svg>